Coordinates
version=1
nRows=29
nColumns=24
inDegrees=yes

Units are S.I. units (second, meters, Newtons, ...)
Angles are in degrees.

endheader
time	pelvis_tilt	pelvis_list	pelvis_rotation	pelvis_tx	pelvis_ty	pelvis_tz	hip_flexion_r	hip_adduction_r	hip_rotation_r	knee_angle_r	ankle_angle_r	subtalar_angle_r	mtp_angle_r	hip_flexion_l	hip_adduction_l	hip_rotation_l	knee_angle_l	ankle_angle_l	subtalar_angle_l	mtp_angle_l	lumbar_extension	lumbar_bending	lumbar_rotation
      3.46000000	     16.27564133	     -1.67442042	      1.74400189	      0.25069064	      0.96612354	      0.02385734	    -14.06781418	      2.65407574	      2.36920711	     -2.93065203	     12.72954679	     -1.23622653	     29.58970237	    -13.85448672	    -12.16190993	    -13.80514596	    -50.40431311	     -0.49133588	      4.32695569	     45.71833473	    -25.82779239	      6.98901379	      0.79424018
      3.46500000	     16.12731785	     -1.62573656	      1.91838415	      0.25488652	      0.96615283	      0.02400511	    -14.31311169	      2.66938897	      2.28100936	     -2.70410461	     12.85735544	     -1.27014201	     29.56172427	    -12.93044048	    -12.28407761	    -13.61228247	    -50.89518989	      0.27589339	      3.53443128	     45.57517490	    -25.71827991	      7.02197450	      0.67453814
      3.47000000	     15.86194541	     -1.60198066	      2.01519276	      0.25895379	      0.96599373	      0.02427902	    -14.36932461	      2.69514317	      2.31632296	     -2.57751269	     13.02455411	     -1.41027775	     29.40814847	    -11.88359928	    -12.41365262	    -13.50038806	    -51.36373103	      1.15628640	      3.06930230	     44.93940806	    -25.50375085	      7.04184319	      0.66530574
      3.47500000	     15.71625531	     -1.55538574	      2.19998843	      0.26309410	      0.96596738	      0.02440357	    -14.61630339	      2.71893001	      2.22664326	     -2.34283128	     13.13799532	     -1.51525035	     29.31530842	    -10.96725360	    -12.51979840	    -13.31240504	    -51.72059546	      1.92539799	      2.62075456	     44.59944336	    -25.40450166	      7.07101876	      0.51671172
      3.48000000	     15.49225238	     -1.54596087	      2.26533664	      0.26715984	      0.96580606	      0.02473422	    -14.73384926	      2.75843697	      2.34692840	     -2.17663274	     13.27450175	     -1.76883697	     28.30910662	    -10.00592077	    -12.64915895	    -13.27730043	    -52.05620527	      3.03671406	      2.75772592	     40.78358799	    -25.24278815	      7.08076977	      0.53314410
      3.48500000	     15.28045692	     -1.49527333	      2.35495253	      0.27120499	      0.96565909	      0.02492113	    -14.82431517	      2.74985876	      2.25223551	     -2.09737785	     13.52454026	     -1.68552600	     28.29804551	     -9.06414657	    -12.69667118	    -13.19388998	    -52.25357601	      3.80268636	      2.52187401	     40.69279580	    -25.09335318	      7.06382773	      0.50288876
      3.49000000	     15.04134741	     -1.47842987	      2.41125880	      0.27523199	      0.96542745	      0.02517828	    -14.88519743	      2.76969869	      2.25983706	     -2.00422494	     13.72749301	     -1.71790873	     28.21396181	     -8.10944647	    -12.77859853	    -13.17620691	    -52.39876825	      4.60561807	      2.51165420	     40.47960786	    -24.92230286	      7.06278018	      0.52597246
      3.49500000	     14.80964978	     -1.45893785	      2.44968802	      0.27923569	      0.96518339	      0.02544115	    -14.94354983	      2.78297251	      2.28732912	     -1.92811397	     13.92960489	     -1.77647428	     28.08491077	     -7.18485237	    -12.83921070	    -13.18420084	    -52.45922016	      5.40543827	      2.61063863	     40.17400865	    -24.76551213	      7.04913156	      0.57687110
      3.50000000	     14.59478562	     -1.41186319	      2.45322493	      0.28326701	      0.96496823	      0.02571771	    -15.00117500	      2.75978857	      2.27644509	     -1.89431450	     14.14585172	     -1.82415843	     27.96569449	     -6.32699164	    -12.84940948	    -13.25228956	    -52.39621532	      6.18390147	      2.78063553	     39.90733169	    -24.62769787	      6.99306624	      0.64156403
      3.50500000	     14.38623396	     -1.42576343	      2.43768233	      0.28725515	      0.96469223	      0.02604210	    -15.07278620	      2.79393706	      2.37550554	     -1.84037329	     14.46623075	     -1.76021580	     26.32121848	     -5.47378388	    -12.92186305	    -13.35173866	    -52.34099383	      7.17659561	      3.25170173	     35.99173538	    -24.50611218	      6.98693487	      0.76746018
      3.51000000	     14.18056514	     -1.38897523	      2.42498893	      0.29125624	      0.96443143	      0.02629542	    -15.12591589	      2.77042156	      2.35752205	     -1.82825168	     14.72935343	     -1.66956835	     26.31957746	     -4.65669059	    -12.90976654	    -13.44319801	    -52.12801849	      7.84938308	      3.48495806	     35.98724771	    -24.38637389	      6.93173164	      0.87473140
      3.51500000	     13.97739661	     -1.36559122	      2.38497152	      0.29526978	      0.96415030	      0.02658070	    -15.17262932	      2.75556243	      2.36934893	     -1.83161215	     14.98112536	     -1.61935194	     26.28180692	     -3.87429091	    -12.90462271	    -13.60276189	    -51.83306430	      8.50989567	      3.76168303	     35.93609177	    -24.27161159	      6.87869388	      1.00235282
      3.52000000	     13.78239292	     -1.35562339	      2.33453903	      0.29928088	      0.96385427	      0.02687405	    -15.22288313	      2.75115248	      2.39705551	     -1.84320974	     15.23851721	     -1.55152529	     26.21470834	     -3.12156393	    -12.89973142	    -13.77906821	    -51.46078024	      9.13947342	      4.06702151	     35.83613542	    -24.16699659	      6.83218993	      1.16153974
      3.52500000	     13.58972851	     -1.35612120	      2.27281610	      0.30327416	      0.96353764	      0.02716372	    -15.26423470	      2.75233112	      2.43484188	     -1.87460388	     15.51096036	     -1.45859476	     26.10230488	     -2.39113819	    -12.89407852	    -13.98056542	    -51.01432852	      9.74324536	      4.41681315	     35.66559610	    -24.07088704	      6.79264884	      1.34626095
      3.53000000	     13.43431746	     -1.33805816	      2.20152451	      0.30729752	      0.96325821	      0.02744636	    -15.35161107	      2.73131787	      2.46858553	     -1.89938702	     15.78268114	     -1.36365364	     25.98794984	     -1.73885123	    -12.84967375	    -14.20628581	    -50.46248890	     10.30397325	      4.73728618	     35.49641097	    -24.01230989	      6.72841390	      1.52618801
      3.53500000	     13.23839113	     -1.34066387	      2.14254230	      0.31130704	      0.96290714	      0.02763941	    -15.36208428	      2.72419896	      2.41550365	     -2.00798656	     16.28005610	     -0.88978655	     23.76658397	     -1.04059601	    -12.80556939	    -14.41158496	    -49.89009190	     11.03343183	      5.22520056	     32.22127354	    -23.90963743	      6.69682330	      1.72268366
      3.54000000	     13.14413460	     -1.31785388	      2.05248105	      0.31535181	      0.96268529	      0.02792731	    -15.51365352	      2.69501173	      2.46303101	     -2.03893728	     16.54720771	     -0.85164010	     23.76735587	     -0.51996844	    -12.73223516	    -14.69153288	    -49.14846417	     11.52823313	      5.61457791	     32.23735907	    -23.92037712	      6.61868181	      1.92911566
      3.54500000	     13.02512076	     -1.30240002	      1.95118558	      0.31939836	      0.96243175	      0.02819875	    -15.62652778	      2.66459568	      2.50581652	     -2.09199080	     16.81555652	     -0.72774432	     23.74812287	      0.00519813	    -12.64773506	    -14.98566094	    -48.33046549	     11.98147196	      5.98863564	     32.21883544	    -23.90404480	      6.54371451	      2.16014254
      3.55000000	     12.92123470	     -1.28409577	      1.84604128	      0.32344300	      0.96218172	      0.02845834	    -15.74838433	      2.62883422	      2.53698304	     -2.16076458	     17.09913989	     -0.56879195	     23.70322406	      0.48783418	    -12.54576309	    -15.29323792	    -47.42806012	     12.40565776	      6.38073322	     32.17157284	    -23.90619393	      6.46292826	      2.40047404
      3.55500000	     12.88593260	     -1.21792782	      1.77066808	      0.32756539	      0.96204829	      0.02858802	    -15.92854454	      2.54381737	      2.33858601	     -2.29222847	     17.52975026	     -0.04050644	     22.91963925	      0.85204600	    -12.36273220	    -15.57847279	    -46.39863235	     12.83759384	      6.83128476	     31.35705834	    -23.97254263	      6.35058963	      2.56926296
      3.56000000	     12.77578162	     -1.20718562	      1.63136677	      0.33158221	      0.96176743	      0.02886551	    -16.04816445	      2.50323448	      2.49263000	     -2.34048506	     17.80261362	      0.00114197	     22.86931084	      1.28679647	    -12.24027782	    -15.93216878	    -45.33792814	     13.20643354	      7.26600455	     31.33104440	    -23.97502343	      6.26362009	      2.86003257
      3.56500000	     12.71437441	     -1.17842373	      1.50158624	      0.33565020	      0.96156860	      0.02910225	    -16.21422715	      2.44555103	      2.54473062	     -2.41382356	     18.07984983	      0.15068063	     22.79283925	      1.62574782	    -12.08329612	    -16.29317115	    -44.16302308	     13.54835703	      7.78250927	     31.28135870	    -24.02422577	      6.16040840	      3.13324158
      3.57000000	     12.72359229	     -1.13356596	      1.36604184	      0.33975170	      0.96147205	      0.02930593	    -16.44825574	      2.36615588	      2.52588501	     -2.51291185	     18.35359747	      0.43669450	     22.61209594	      1.83684335	    -11.89261408	    -16.68821213	    -42.86726823	     13.89423100	      8.33721408	     31.15467654	    -24.14975920	      6.04041683	      3.37739440
      3.57500000	     12.67443953	     -1.07080357	      1.24600819	      0.34379296	      0.96128192	      0.02945374	    -16.62425736	      2.26728701	      2.56673512	     -2.59247475	     18.68866438	      0.62614433	     22.48800414	      2.11076105	    -11.65542110	    -17.02209728	    -41.51484159	     14.13899281	      8.91285408	     31.07931165	    -24.21506431	      5.90529866	      3.62905963
      3.58000000	     12.70392037	     -0.99804412	      1.10449434	      0.34795094	      0.96120936	      0.02961313	    -16.88766688	      2.15240158	      2.51656210	     -2.68324174	     18.97946265	      0.92554756	     22.26304687	      2.22858050	    -11.40502521	    -17.45624973	    -40.03454706	     14.42707582	      9.56722753	     30.95859936	    -24.35552535	      5.75262594	      3.86300049
      3.58500000	     12.71426966	     -0.91729542	      0.97140157	      0.35204541	      0.96109103	      0.02972709	    -17.12565417	      2.02680699	      2.51107487	     -2.77453279	     19.30569216	      1.18639490	     22.03005068	      2.35501170	    -11.12227865	    -17.84721728	    -38.48654538	     14.64971021	     10.27143262	     30.85068339	    -24.48218604	      5.59336345	      4.09381354
      3.59000000	     12.73129109	     -0.82929666	      0.83862109	      0.35616157	      0.96098018	      0.02983471	    -17.37095485	      1.89294585	      2.50640870	     -2.86963175	     19.62855766	      1.44317274	     21.79157061	      2.44040279	    -10.81963274	    -18.25382602	    -36.85133891	     14.83757245	     11.04101249	     30.75966631	    -24.61103399	      5.42132489	      4.31879488
      3.59500000	     12.78204607	     -0.71531686	      0.71261687	      0.36030715	      0.96091762	      0.02987062	    -17.65688356	      1.72669043	      2.47189368	     -2.96443081	     19.94633681	      1.75255621	     21.43153850	      2.44351623	    -10.46399948	    -18.66110962	    -35.10047605	     15.01178129	     11.85664498	     30.63885045	    -24.77383350	      5.22908568	      4.46887151
      3.60000000	     12.79028304	     -0.62402900	      0.56988386	      0.36442803	      0.96077871	      0.02993625	    -17.88198660	      1.58163395	      2.47668716	     -3.07791969	     20.28571642	      1.98132936	     21.16490026	      2.47841249	    -10.13018507	    -19.09316453	    -33.31341432	     15.11064016	     12.76397145	     30.57612347	    -24.89183345	      5.05000610	      4.71115412
